<svg width="39" height="39" viewBox="0 0 39 39" fill="none" xmlns="http://www.w3.org/2000/svg">
<path d="M39 0H0V39H39V0Z" fill="#50ABF1"/>
<path d="M5.16764 28.9096C7.76319 30.5557 10.8421 31.5084 14.1425 31.5084C23.4147 31.5084 30.931 23.9912 30.931 14.7199C30.931 14.4884 30.9261 14.2587 30.9172 14.0296C31.2526 13.7657 33.3268 12.1032 33.8352 11.0344C33.8352 11.0344 32.1508 11.7344 30.5022 11.8993C30.499 11.8993 30.495 11.9001 30.4917 11.9001C30.4917 11.9001 30.495 11.8985 30.5006 11.8944C30.6525 11.793 32.7762 10.3473 33.0637 8.62481C33.0637 8.62481 31.8723 9.26073 30.2042 9.81707C29.928 9.90881 29.6389 9.999 29.3409 10.0826C28.2656 8.93503 26.7372 8.21875 25.0406 8.21875C21.7864 8.21875 19.1494 10.8549 19.1494 14.1067C19.1494 14.5656 19.2022 15.0122 19.3021 15.441C18.8474 15.4223 11.9222 15.0341 7.21104 9.32885C7.21104 9.32885 4.3954 13.1727 8.88895 17.1253C8.88895 17.1253 7.52297 17.0709 6.34449 16.3668C6.34449 16.3668 5.91165 21.0235 11.0005 22.2142C11.0005 22.2142 9.99914 22.5934 8.40167 22.323C8.40167 22.323 9.29501 26.0856 13.8162 26.4373C13.8162 26.4373 10.2411 29.6669 5.16602 28.9092L5.16764 28.9096Z" fill="white"/>
</svg>
