<svg width="14" height="10" viewBox="0 0 14 10" fill="none" xmlns="http://www.w3.org/2000/svg">
<path d="M13.972 4.86259C12.7807 2.06155 10.0439 0.251587 7 0.251587C3.95607 0.251587 1.21937 2.0615 0.0279727 4.86259C-0.00932422 4.95026 -0.00932422 5.04927 0.0279727 5.13693C1.21929 7.9383 3.95601 9.7484 7 9.7484C10.0441 9.7484 12.7808 7.9383 13.972 5.13693C14.0093 5.04927 14.0093 4.95026 13.972 4.86259ZM7 9.04747C4.28766 9.04747 1.84414 7.46366 0.733059 4.9998C1.84417 2.53618 4.28775 0.952544 7 0.952544C9.71231 0.952544 12.1559 2.53618 13.2669 4.99975C12.1559 7.46361 9.71234 9.04747 7 9.04747Z" fill="white" fill-opacity="0.5"/>
<path d="M7.00085 2.31543C5.52062 2.31543 4.31641 3.51968 4.31641 4.99987C4.31641 6.48007 5.52065 7.68432 7.00085 7.68432C8.48105 7.68432 9.6853 6.4801 9.6853 4.99987C9.6853 3.51965 8.48105 2.31543 7.00085 2.31543ZM7.00085 6.98345C5.90716 6.98345 5.01734 6.09363 5.01734 4.99993C5.01734 3.90623 5.90716 3.01641 7.00085 3.01641C8.09455 3.01641 8.98437 3.90623 8.98437 4.99993C8.98437 6.09363 8.09455 6.98345 7.00085 6.98345Z" fill="white" fill-opacity="0.5"/>
<path d="M6.99946 3.57471C6.21363 3.57471 5.57422 4.21406 5.57422 4.99995C5.57422 5.19348 5.73109 5.35041 5.92468 5.35041C6.11828 5.35041 6.27515 5.19348 6.27515 4.99995C6.27515 4.60056 6.60005 4.27564 6.99946 4.27564C7.19305 4.27564 7.34992 4.11871 7.34992 3.92517C7.34992 3.73158 7.193 3.57471 6.99946 3.57471Z" fill="white" fill-opacity="0.5"/>
</svg>
