<svg width="46" height="45" viewBox="0 0 46 45" fill="none" xmlns="http://www.w3.org/2000/svg">
<rect x="0.833008" width="45" height="45" rx="8.33333" fill="white"/>
<path d="M36.3601 9.36816L25.2163 17.6361L27.2771 12.7582L36.3601 9.36816Z" fill="#E2761B" stroke="#E2761B" stroke-width="0.833333" stroke-linecap="round" stroke-linejoin="round"/>
<path d="M10.5962 9.27844L21.6651 17.6446L19.7025 12.6765L10.5962 9.27844Z" fill="#E4761B" stroke="#E4761B" stroke-width="0.833333" stroke-linecap="round" stroke-linejoin="round"/>
<path d="M32.3415 28.4893L29.3696 33.0424L35.7283 34.7919L37.5563 28.5902L32.3415 28.4893Z" fill="#E4761B" stroke="#E4761B" stroke-width="0.833333" stroke-linecap="round" stroke-linejoin="round"/>
<path d="M9.41846 28.5902L11.2352 34.7919L17.5939 33.0424L14.6221 28.4893L9.41846 28.5902Z" fill="#E4761B" stroke="#E4761B" stroke-width="0.833333" stroke-linecap="round" stroke-linejoin="round"/>
<path d="M17.2353 20.7959L15.4634 23.4762L21.7772 23.7566L21.5529 16.9717L17.2353 20.7959Z" fill="#E4761B" stroke="#E4761B" stroke-width="0.833333" stroke-linecap="round" stroke-linejoin="round"/>
<path d="M29.7173 20.7959L25.3435 16.8932L25.1978 23.7566L31.5004 23.4762L29.7173 20.7959Z" fill="#E4761B" stroke="#E4761B" stroke-width="0.833333" stroke-linecap="round" stroke-linejoin="round"/>
<path d="M17.5938 33.0423L21.3843 31.1918L18.1096 28.6349L17.5938 33.0423Z" fill="#E4761B" stroke="#E4761B" stroke-width="0.833333" stroke-linecap="round" stroke-linejoin="round"/>
<path d="M25.5679 31.1918L29.3696 33.0423L28.8426 28.6349L25.5679 31.1918Z" fill="#E4761B" stroke="#E4761B" stroke-width="0.833333" stroke-linecap="round" stroke-linejoin="round"/>
<path d="M29.3706 33.0422L25.5688 31.1918L25.8716 33.6702L25.838 34.7132L29.3706 33.0422Z" fill="#D7C1B3" stroke="#D7C1B3" stroke-width="0.833333" stroke-linecap="round" stroke-linejoin="round"/>
<path d="M17.5947 33.0422L21.1273 34.7132L21.1049 33.6702L21.3853 31.1918L17.5947 33.0422Z" fill="#D7C1B3" stroke="#D7C1B3" stroke-width="0.833333" stroke-linecap="round" stroke-linejoin="round"/>
<path d="M21.2622 26.9826L18.0269 26.0395L20.3099 25.0055L21.2622 26.9826Z" fill="#233447" stroke="#233447" stroke-width="0.833333" stroke-linecap="round" stroke-linejoin="round"/>
<path d="M25.7554 26.9826L26.7042 25.0055L28.9907 26.0395L25.7554 26.9826Z" fill="#233447" stroke="#233447" stroke-width="0.833333" stroke-linecap="round" stroke-linejoin="round"/>
<path d="M17.5944 33.0423L18.1327 28.4891L14.6226 28.5901L17.5944 33.0423Z" fill="#CD6116" stroke="#CD6116" stroke-width="0.833333" stroke-linecap="round" stroke-linejoin="round"/>
<path d="M28.8315 28.4891L29.3698 33.0423L32.3417 28.5901L28.8315 28.4891Z" fill="#CD6116" stroke="#CD6116" stroke-width="0.833333" stroke-linecap="round" stroke-linejoin="round"/>
<path d="M31.5004 23.4762L25.1978 23.7566L25.7809 26.9976L26.7117 25.0462L28.9547 26.0668L31.5004 23.4762Z" fill="#CD6116" stroke="#CD6116" stroke-width="0.833333" stroke-linecap="round" stroke-linejoin="round"/>
<path d="M18.0203 26.0668L20.2633 25.0462L21.1829 26.9976L21.7772 23.7566L15.4634 23.4762L18.0203 26.0668Z" fill="#CD6116" stroke="#CD6116" stroke-width="0.833333" stroke-linecap="round" stroke-linejoin="round"/>
<path d="M15.4639 23.4762L18.1105 28.6349L18.0208 26.0668L15.4639 23.4762Z" fill="#E4751F" stroke="#E4751F" stroke-width="0.833333" stroke-linecap="round" stroke-linejoin="round"/>
<path d="M28.9549 26.0668L28.8428 28.6349L31.5006 23.4762L28.9549 26.0668Z" fill="#E4751F" stroke="#E4751F" stroke-width="0.833333" stroke-linecap="round" stroke-linejoin="round"/>
<path d="M21.7775 23.7565L21.1831 26.9975L21.9233 30.8217L22.0915 25.7863L21.7775 23.7565Z" fill="#E4751F" stroke="#E4751F" stroke-width="0.833333" stroke-linecap="round" stroke-linejoin="round"/>
<path d="M25.1983 23.7565L24.8955 25.7751L25.0301 30.8217L25.7815 26.9975L25.1983 23.7565Z" fill="#E4751F" stroke="#E4751F" stroke-width="0.833333" stroke-linecap="round" stroke-linejoin="round"/>
<path d="M25.7931 26.9979L25.0361 30.7531L25.5784 31.1165L28.8774 28.6057L28.9904 26.0839L25.7931 26.9979Z" fill="#F6851B" stroke="#F6851B" stroke-width="0.833333" stroke-linecap="round" stroke-linejoin="round"/>
<path d="M18.0269 26.0839L18.1178 28.6057L21.4357 31.1165L21.9811 30.7531L21.2312 26.9979L18.0269 26.0839Z" fill="#F6851B" stroke="#F6851B" stroke-width="0.833333" stroke-linecap="round" stroke-linejoin="round"/>
<path d="M25.8456 34.7334L25.879 33.71L25.6008 33.4679H21.406L21.1501 33.71L21.1724 34.7334L17.6675 33.0938L18.8914 34.0841L21.3727 35.7898H25.6342L28.1266 34.0841L29.3505 33.0938L25.8456 34.7334Z" fill="#C0AD9E" stroke="#C0AD9E" stroke-width="0.833333" stroke-linecap="round" stroke-linejoin="round"/>
<path d="M25.6272 31.1307L25.0791 30.7571H21.9161L21.368 31.1307L21.0825 33.6329L21.3451 33.3838H25.65L25.9355 33.6329L25.6272 31.1307Z" fill="#161616" stroke="#161616" stroke-width="0.833333" stroke-linecap="round" stroke-linejoin="round"/>
<path d="M36.8279 18.1043L37.7811 13.5287L36.3569 9.27832L25.5684 17.2856L29.7178 20.7958L35.5831 22.5116L36.884 20.9976L36.3232 20.5939L37.2204 19.7752L36.5251 19.2369L37.4223 18.5528L36.8279 18.1043Z" fill="#763D16" stroke="#763D16" stroke-width="0.833333" stroke-linecap="round" stroke-linejoin="round"/>
<path d="M9.18359 13.5287L10.1368 18.1043L9.53125 18.5528L10.4284 19.2369L9.74433 19.7752L10.6415 20.5939L10.0808 20.9976L11.3705 22.5116L17.2357 20.7958L21.3851 17.2856L10.5966 9.27832L9.18359 13.5287Z" fill="#763D16" stroke="#763D16" stroke-width="0.833333" stroke-linecap="round" stroke-linejoin="round"/>
<path d="M35.6233 22.5632L29.6952 20.8715L31.4974 23.5141L28.811 28.6002L32.3475 28.556H37.6182L35.6233 22.5632Z" fill="#F6851B" stroke="#F6851B" stroke-width="0.833333" stroke-linecap="round" stroke-linejoin="round"/>
<path d="M17.1586 20.8715L11.3364 22.5632L9.39941 28.556H14.5648L18.0269 28.6002L15.3997 23.5141L17.1586 20.8715Z" fill="#F6851B" stroke="#F6851B" stroke-width="0.833333" stroke-linecap="round" stroke-linejoin="round"/>
<path d="M25.1241 23.6887L25.4931 17.2148L27.1931 12.6035H19.644L21.3216 17.2148L21.713 23.6887L21.8472 25.7307L21.8584 30.7571H24.9563L24.9787 25.7307L25.1241 23.6887Z" fill="#F6851B" stroke="#F6851B" stroke-width="0.833333" stroke-linecap="round" stroke-linejoin="round"/>
</svg>
